<svg width="209" height="29" viewBox="0 0 209 29" fill="none" xmlns="http://www.w3.org/2000/svg">
<path d="M6.4227 26.092C6.9747 26.212 7.5027 26.344 8.0067 26.488C8.5107 26.608 9.0027 26.764 9.4827 26.956V28H0.0147032V26.956C0.542703 26.716 1.0467 26.536 1.5267 26.416C2.0067 26.296 2.4867 26.188 2.9667 26.092V4.744C2.3427 4.624 1.7907 4.492 1.3107 4.348C0.830703 4.18 0.398703 4.012 0.0147032 3.844V2.8H3.1827C4.1427 2.8 5.1867 2.752 6.3147 2.656C7.4667 2.56 8.5827 2.512 9.6627 2.512C10.8387 2.512 11.9307 2.644 12.9387 2.908C13.9707 3.172 14.8587 3.592 15.6027 4.168C16.3467 4.744 16.9227 5.476 17.3307 6.364C17.7627 7.252 17.9787 8.32 17.9787 9.568C17.9787 11.32 17.5107 12.772 16.5747 13.924C15.6627 15.076 14.4147 15.904 12.8307 16.408C13.8627 18.04 14.9427 19.66 16.0707 21.268C17.1987 22.876 18.3747 24.472 19.5987 26.056L21.5427 27.1V28H17.1867L15.8187 26.992C15.1467 26.152 14.5347 25.336 13.9827 24.544C13.4307 23.728 12.9147 22.912 12.4347 22.096C11.9547 21.256 11.4987 20.416 11.0667 19.576C10.6587 18.712 10.2387 17.8 9.8067 16.84H6.4227V26.092ZM8.8707 4.384C8.2947 4.384 7.8147 4.396 7.4307 4.42C7.0707 4.444 6.7347 4.492 6.4227 4.564V15.328H9.0147C10.6707 15.328 11.9787 14.8 12.9387 13.744C13.9227 12.688 14.4147 11.296 14.4147 9.568C14.4147 7.792 13.8987 6.484 12.8667 5.644C11.8347 4.804 10.5027 4.384 8.8707 4.384ZM23.3686 19C23.3686 17.488 23.5606 16.156 23.9446 15.004C24.3526 13.828 24.9286 12.844 25.6726 12.052C26.4166 11.236 27.3046 10.624 28.3366 10.216C29.3926 9.784 30.5566 9.568 31.8286 9.568C33.3166 9.568 34.6006 9.796 35.6806 10.252C36.7606 10.708 37.6366 11.356 38.3086 12.196C39.0046 13.012 39.5086 13.996 39.8206 15.148C40.1566 16.3 40.3246 17.584 40.3246 19C40.3246 22.024 39.5566 24.352 38.0206 25.984C36.4846 27.616 34.4206 28.432 31.8286 28.432C30.3886 28.432 29.1406 28.216 28.0846 27.784C27.0286 27.328 26.1526 26.692 25.4566 25.876C24.7606 25.036 24.2326 24.04 23.8726 22.888C23.5366 21.712 23.3686 20.416 23.3686 19ZM26.8246 19C26.8246 20.08 26.9206 21.1 27.1126 22.06C27.3286 23.02 27.6526 23.86 28.0846 24.58C28.5406 25.276 29.1286 25.828 29.8486 26.236C30.5686 26.644 31.4326 26.848 32.4406 26.848C33.7366 26.848 34.7926 26.212 35.6086 24.94C36.4486 23.668 36.8686 21.688 36.8686 19C36.8686 17.896 36.7606 16.876 36.5446 15.94C36.3526 14.98 36.0406 14.152 35.6086 13.456C35.1766 12.736 34.6246 12.172 33.9526 11.764C33.2806 11.356 32.4766 11.152 31.5406 11.152C30.1246 11.152 28.9846 11.788 28.1206 13.06C27.2566 14.332 26.8246 16.312 26.8246 19ZM44.563 3.448L41.827 3.16V2.224C42.571 1.912 43.399 1.66 44.311 1.468C45.247 1.276 46.111 1.096 46.903 0.927999H47.803V13.564H47.875C48.283 12.34 48.967 11.368 49.927 10.648C50.911 9.928 51.991 9.568 53.167 9.568C55.351 9.568 57.019 10.312 58.171 11.8C59.347 13.288 59.935 15.58 59.935 18.676C59.935 21.844 59.131 24.244 57.523 25.876C55.939 27.508 53.647 28.324 50.647 28.324C50.047 28.324 49.447 28.276 48.847 28.18C48.247 28.108 47.671 28.012 47.119 27.892C46.567 27.772 46.063 27.628 45.607 27.46C45.175 27.292 44.827 27.124 44.563 26.956V3.448ZM52.195 11.8C51.043 11.8 50.107 12.196 49.387 12.988C48.667 13.756 48.139 14.74 47.803 15.94V25.984C48.235 26.224 48.763 26.416 49.387 26.56C50.011 26.68 50.671 26.74 51.367 26.74C52.951 26.74 54.199 26.056 55.111 24.688C56.023 23.296 56.479 21.292 56.479 18.676C56.479 17.74 56.395 16.852 56.227 16.012C56.083 15.172 55.831 14.44 55.471 13.816C55.135 13.192 54.691 12.7 54.139 12.34C53.611 11.98 52.963 11.8 52.195 11.8ZM71.2061 28V26.956C72.1661 26.5 73.1501 26.212 74.1581 26.092V4.744C73.6781 4.648 73.1861 4.528 72.6821 4.384C72.1781 4.216 71.6861 4.036 71.2061 3.844V2.8H75.0221C75.4781 2.8 75.9101 2.788 76.3181 2.764C76.7501 2.74 77.1941 2.716 77.6501 2.692C78.1061 2.668 78.5981 2.644 79.1261 2.62C79.6541 2.596 80.2541 2.584 80.9261 2.584C81.8861 2.584 82.8581 2.668 83.8421 2.836C84.8501 2.98 85.7501 3.268 86.5421 3.7C87.3581 4.132 88.0181 4.744 88.5221 5.536C89.0261 6.304 89.2781 7.312 89.2781 8.56C89.2781 9.184 89.1821 9.808 88.9901 10.432C88.7981 11.056 88.4981 11.644 88.0901 12.196C87.7061 12.724 87.2141 13.192 86.6141 13.6C86.0141 14.008 85.3061 14.308 84.4901 14.5V14.644C85.2101 14.764 85.9181 14.968 86.6141 15.256C87.3341 15.544 87.9701 15.94 88.5221 16.444C89.0741 16.924 89.5181 17.524 89.8541 18.244C90.2141 18.964 90.3941 19.828 90.3941 20.836C90.3941 22.132 90.1061 23.248 89.5301 24.184C88.9541 25.12 88.1981 25.888 87.2621 26.488C86.3501 27.088 85.3061 27.532 84.1301 27.82C82.9541 28.084 81.7661 28.216 80.5661 28.216C79.7261 28.216 78.7781 28.18 77.7221 28.108C76.6661 28.036 75.6461 28 74.6621 28H71.2061ZM80.8181 26.344C81.6821 26.344 82.4861 26.212 83.2301 25.948C83.9981 25.684 84.6461 25.324 85.1741 24.868C85.7261 24.388 86.1581 23.824 86.4701 23.176C86.7821 22.504 86.9381 21.784 86.9381 21.016C86.9381 20.056 86.7461 19.264 86.3621 18.64C86.0021 17.992 85.4981 17.488 84.8501 17.128C84.2261 16.744 83.4941 16.48 82.6541 16.336C81.8381 16.192 80.9861 16.12 80.0981 16.12H77.3981V26.056C77.7341 26.152 78.1301 26.224 78.5861 26.272C79.0661 26.32 79.8101 26.344 80.8181 26.344ZM79.1981 14.248C79.6061 14.248 80.0861 14.236 80.6381 14.212C81.2141 14.164 81.6821 14.116 82.0421 14.068C83.1461 13.684 84.0461 13.072 84.7421 12.232C85.4621 11.368 85.8221 10.36 85.8221 9.208C85.8221 7.624 85.3421 6.436 84.3821 5.644C83.4461 4.852 82.1861 4.456 80.6021 4.456C79.8581 4.456 79.2221 4.468 78.6941 4.492C78.1661 4.516 77.7341 4.552 77.3981 4.6V14.248H79.1981ZM93.7865 19C93.7865 17.488 93.9785 16.156 94.3625 15.004C94.7705 13.828 95.3465 12.844 96.0905 12.052C96.8345 11.236 97.7225 10.624 98.7545 10.216C99.8105 9.784 100.975 9.568 102.247 9.568C103.735 9.568 105.019 9.796 106.099 10.252C107.179 10.708 108.055 11.356 108.727 12.196C109.423 13.012 109.927 13.996 110.239 15.148C110.575 16.3 110.743 17.584 110.743 19C110.743 22.024 109.975 24.352 108.439 25.984C106.903 27.616 104.839 28.432 102.247 28.432C100.807 28.432 99.5585 28.216 98.5025 27.784C97.4465 27.328 96.5705 26.692 95.8745 25.876C95.1785 25.036 94.6505 24.04 94.2905 22.888C93.9545 21.712 93.7865 20.416 93.7865 19ZM97.2425 19C97.2425 20.08 97.3385 21.1 97.5305 22.06C97.7465 23.02 98.0705 23.86 98.5025 24.58C98.9585 25.276 99.5465 25.828 100.267 26.236C100.987 26.644 101.851 26.848 102.859 26.848C104.155 26.848 105.211 26.212 106.027 24.94C106.867 23.668 107.287 21.688 107.287 19C107.287 17.896 107.179 16.876 106.963 15.94C106.771 14.98 106.459 14.152 106.027 13.456C105.595 12.736 105.043 12.172 104.371 11.764C103.699 11.356 102.895 11.152 101.959 11.152C100.543 11.152 99.4025 11.788 98.5385 13.06C97.6745 14.332 97.2425 16.312 97.2425 19ZM119.409 28.432L113.757 11.8C113.421 11.68 113.085 11.56 112.749 11.44C112.437 11.296 112.137 11.128 111.849 10.936V10H119.337V10.9C119.001 11.092 118.665 11.272 118.329 11.44C117.993 11.584 117.645 11.704 117.285 11.8L120.417 22.312L120.885 24.904H120.957L121.497 22.24L125.385 10.36L126.465 10L130.605 22.276L131.253 24.904H131.325L131.865 22.276L134.637 11.8C134.373 11.752 134.061 11.656 133.701 11.512C133.365 11.368 133.017 11.176 132.657 10.936V10H138.777V10.936C138.273 11.272 137.589 11.56 136.725 11.8L131.613 28L129.705 28.432L126.141 18.244L125.457 15.256H125.349L124.521 18.244L121.281 28L119.409 28.432ZM158.128 28H150.424V27.1C150.664 26.956 150.952 26.812 151.288 26.668C151.648 26.5 152.068 26.356 152.548 26.236V17.92C152.548 16.96 152.5 16.096 152.404 15.328C152.332 14.56 152.176 13.924 151.936 13.42C151.72 12.892 151.396 12.496 150.964 12.232C150.532 11.944 149.968 11.8 149.272 11.8C148.744 11.8 148.252 11.908 147.796 12.124C147.364 12.34 146.968 12.628 146.608 12.988C146.272 13.348 145.972 13.756 145.708 14.212C145.468 14.668 145.276 15.148 145.132 15.652V26.236C145.516 26.356 145.876 26.488 146.212 26.632C146.572 26.752 146.92 26.908 147.256 27.1V28H139.516V27.1C139.852 26.932 140.224 26.776 140.632 26.632C141.04 26.488 141.46 26.356 141.892 26.236V12.088L139.516 11.8V10.864C140.284 10.528 141.064 10.264 141.856 10.072C142.672 9.856 143.464 9.688 144.232 9.568H145.132V13.636H145.168C145.552 12.508 146.2 11.548 147.112 10.756C148.048 9.964 149.2 9.568 150.568 9.568C151.144 9.568 151.696 9.628 152.224 9.748C152.752 9.868 153.244 10.096 153.7 10.432C154.156 10.744 154.54 11.188 154.852 11.764C155.164 12.34 155.392 13.084 155.536 13.996C155.968 12.676 156.664 11.608 157.624 10.792C158.584 9.976 159.784 9.568 161.224 9.568C162.112 9.568 162.88 9.688 163.528 9.928C164.2 10.144 164.752 10.54 165.184 11.116C165.616 11.692 165.928 12.472 166.12 13.456C166.336 14.44 166.444 15.688 166.444 17.2V26.236C167.26 26.38 168.052 26.668 168.82 27.1V28H161.08V27.1C161.8 26.716 162.508 26.428 163.204 26.236V17.272C163.204 16.408 163.156 15.64 163.06 14.968C162.988 14.296 162.832 13.732 162.592 13.276C162.352 12.796 162.016 12.436 161.584 12.196C161.152 11.932 160.576 11.8 159.856 11.8C158.704 11.8 157.804 12.196 157.156 12.988C156.532 13.78 156.076 14.788 155.788 16.012V26.236C156.628 26.476 157.408 26.764 158.128 27.1V28ZM184.239 23.284C184.239 23.812 184.251 24.268 184.275 24.652C184.299 25.036 184.323 25.444 184.347 25.876L186.831 26.236V26.992C186.231 27.304 185.559 27.58 184.815 27.82C184.095 28.06 183.399 28.24 182.727 28.36H181.827C181.587 27.808 181.443 27.208 181.395 26.56C181.347 25.888 181.311 25.156 181.287 24.364H181.107C181.011 24.844 180.819 25.336 180.531 25.84C180.267 26.32 179.907 26.752 179.451 27.136C179.019 27.52 178.503 27.832 177.903 28.072C177.303 28.312 176.619 28.432 175.851 28.432C174.387 28.432 173.187 27.988 172.251 27.1C171.339 26.212 170.883 25.048 170.883 23.608C170.883 22.504 171.099 21.604 171.531 20.908C171.987 20.188 172.647 19.624 173.511 19.216C174.375 18.808 175.443 18.52 176.715 18.352C177.987 18.16 179.463 18.016 181.143 17.92C181.239 16.888 181.263 15.964 181.215 15.148C181.191 14.308 181.059 13.6 180.819 13.024C180.603 12.424 180.267 11.968 179.811 11.656C179.379 11.32 178.803 11.152 178.083 11.152C177.747 11.152 177.363 11.176 176.931 11.224C176.523 11.248 176.115 11.344 175.707 11.512L174.015 15.832H173.079C172.839 15.112 172.623 14.368 172.431 13.6C172.263 12.832 172.155 12.076 172.107 11.332C173.019 10.78 174.027 10.348 175.131 10.036C176.259 9.724 177.507 9.568 178.875 9.568C180.099 9.568 181.071 9.748 181.791 10.108C182.535 10.444 183.099 10.888 183.483 11.44C183.867 11.992 184.119 12.604 184.239 13.276C184.359 13.948 184.419 14.62 184.419 15.292C184.419 16.732 184.383 18.124 184.311 19.468C184.263 20.788 184.239 22.06 184.239 23.284ZM177.291 26.2C177.891 26.2 178.419 26.08 178.875 25.84C179.331 25.6 179.715 25.312 180.027 24.976C180.339 24.64 180.591 24.304 180.783 23.968C180.975 23.608 181.107 23.308 181.179 23.068V19.288C179.787 19.288 178.647 19.36 177.759 19.504C176.871 19.648 176.175 19.876 175.671 20.188C175.167 20.5 174.819 20.896 174.627 21.376C174.435 21.832 174.339 22.36 174.339 22.96C174.339 23.992 174.603 24.796 175.131 25.372C175.659 25.924 176.379 26.2 177.291 26.2ZM208.426 28H200.686V27.1C201.334 26.764 202.042 26.476 202.81 26.236V17.704C202.81 15.88 202.546 14.44 202.018 13.384C201.49 12.328 200.53 11.8 199.138 11.8C198.538 11.8 197.974 11.908 197.446 12.124C196.942 12.34 196.486 12.64 196.078 13.024C195.694 13.384 195.358 13.804 195.07 14.284C194.782 14.74 194.554 15.22 194.386 15.724V26.236C195.13 26.38 195.85 26.668 196.546 27.1V28H188.77V27.1C189.37 26.788 190.162 26.5 191.146 26.236V12.088L188.77 11.8V10.864C189.394 10.6 190.114 10.36 190.93 10.144C191.746 9.928 192.598 9.736 193.486 9.568H194.386V13.6H194.422C194.926 12.496 195.646 11.548 196.582 10.756C197.542 9.964 198.694 9.568 200.038 9.568C200.998 9.568 201.85 9.688 202.594 9.928C203.362 10.144 203.998 10.54 204.502 11.116C205.006 11.692 205.39 12.472 205.654 13.456C205.918 14.416 206.05 15.64 206.05 17.128V26.236C207.01 26.404 207.802 26.692 208.426 27.1V28Z" fill="white"/>
</svg>
